<svg xmlns="http://www.w3.org/2000/svg" viewBox="0 0 120 120" role="img" aria-labelledby="logoTitle logoDesc">
  <title id="logoTitle">SADA Traiteur Logo</title>
  <desc id="logoDesc">Golden pot icon with spoon and fork inside a circle.</desc>
  <defs>
    <linearGradient id="gold" x1="0%" y1="0%" x2="100%" y2="100%">
      <stop offset="0%" stop-color="#fbbf24"/>
      <stop offset="100%" stop-color="#f59e0b"/>
    </linearGradient>
  </defs>
  <circle cx="60" cy="60" r="56" fill="url(#gold)" />
  <path d="M40 50c0-10 8-18 18-18s18 8 18 18v10c0 6-5 11-11 11H51c-6 0-11-5-11-11V50Z" fill="#0f172a" />
  <path d="M53 42h14" stroke="#fbbf24" stroke-width="3" stroke-linecap="round" />
  <path d="M60 40v22" stroke="#fbbf24" stroke-width="3" stroke-linecap="round" />
  <path d="M47 37c0-5 4-9 9-9s9 4 9 9" fill="none" stroke="#0f172a" stroke-width="3" stroke-linecap="round" />
  <path d="M42 58l20 20" stroke="#0f172a" stroke-width="4" stroke-linecap="round" />
  <path d="M72 58l-20 20" stroke="#0f172a" stroke-width="4" stroke-linecap="round" />
  <circle cx="45" cy="81" r="3" fill="#0f172a" />
  <circle cx="75" cy="81" r="3" fill="#0f172a" />
</svg>
